<svg aria-hidden="true" style="position: absolute; width: 0; height: 0; overflow: hidden;" version="1.1" xmlns="http://www.w3.org/2000/svg" xmlns:xlink="http://www.w3.org/1999/xlink">
<defs>
<symbol id="icon-arrow" viewBox="0 0 32 32">
<path d="M31.805 15.529l-10-10c-0.26-0.26-0.682-0.26-0.943 0s-0.26 0.682 0 0.943l8.862 8.862h-29.057c-0.368 0-0.667 0.298-0.667 0.667s0.298 0.667 0.667 0.667h29.057l-8.862 8.862c-0.26 0.26-0.26 0.682 0 0.943 0.13 0.13 0.301 0.195 0.471 0.195s0.341-0.065 0.471-0.195l10-10c0.26-0.26 0.26-0.682 0-0.943z"></path>
</symbol>
<symbol id="icon-arrow-left" viewBox="0 0 32 32">
<path fill="#fff" style="fill: var(--color1, #fff)" d="M0.195 16.471l10 10c0.26 0.261 0.682 0.261 0.943 0s0.26-0.682 0-0.943l-8.862-8.862h29.057c0.369 0 0.667-0.298 0.667-0.667s-0.298-0.667-0.667-0.667h-29.057l8.862-8.862c0.26-0.26 0.26-0.682 0-0.943-0.13-0.13-0.301-0.195-0.471-0.195s-0.341 0.065-0.471 0.195l-10 10c-0.26 0.26-0.26 0.682 0 0.943z"></path>
</symbol>
<symbol id="icon-close" viewBox="0 0 32 32">
<path d="M31.556 3.578l-3.133-3.133-12.422 12.422-12.422-12.422-3.133 3.133 12.422 12.422-12.422 12.422 3.133 3.133 12.422-12.422 12.422 12.422 3.133-3.133-12.422-12.422 12.422-12.422z"></path>
</symbol>
<symbol id="icon-like-1" viewBox="0 0 32 32">
<path d="M16 30.72l-2.24-2.24c-8.32-7.36-13.76-12.32-13.76-18.4 0-4.96 3.84-8.8 8.8-8.8 2.72 0 5.44 1.28 7.2 3.36 1.76-2.080 4.48-3.36 7.2-3.36 4.96 0 8.8 3.84 8.8 8.8 0 6.080-5.44 11.040-13.76 18.4l-2.24 2.24z"></path>
</symbol>
<symbol id="icon-sign-out" viewBox="0 0 32 32">
<path d="M25.293 9.293l-1.414 1.414 4.293 4.293h-14.172v2h14.172l-4.293 4.293 1.414 1.414 6.707-6.707-6.707-6.707z"></path>
<path d="M22 30h-20v-28h20v2h2v-3c0-0.553-0.447-1-1-1h-22c-0.553 0-1 0.447-1 1v30c0 0.553 0.447 1 1 1h22c0.553 0 1-0.447 1-1v-3h-2v2z"></path>
</symbol>
<symbol id="icon-menu" viewBox="0 0 32 32">
<path d="M1 26h30v-3.333h-30v3.333zM1 17.667h30v-3.333h-30v3.333zM1 6v3.333h30v-3.333h-30z"></path>
</symbol>
<symbol id="icon-like-2" viewBox="0 0 32 32">
<path d="M16 30.22c-0.456 0-0.895-0.165-1.237-0.465-1.293-1.13-2.539-2.193-3.639-3.13l-0.006-0.005c-3.224-2.747-6.008-5.12-7.945-7.457-2.165-2.613-3.174-5.090-3.174-7.796 0-2.629 0.902-5.055 2.539-6.831 1.657-1.797 3.929-2.786 6.401-2.786 1.847 0 3.539 0.584 5.028 1.736 0.751 0.581 1.433 1.293 2.033 2.123 0.6-0.83 1.281-1.541 2.033-2.123 1.489-1.152 3.181-1.736 5.028-1.736 2.471 0 4.744 0.99 6.401 2.786 1.637 1.776 2.538 4.201 2.538 6.831 0 2.706-1.008 5.184-3.174 7.796-1.937 2.337-4.721 4.71-7.944 7.457-1.102 0.939-2.35 2.002-3.646 3.136-0.342 0.299-0.781 0.464-1.237 0.464zM8.939 3.624c-1.942 0-3.725 0.775-5.023 2.182-1.317 1.428-2.042 3.403-2.042 5.56 0 2.276 0.846 4.312 2.743 6.6 1.833 2.212 4.56 4.536 7.717 7.227l0.006 0.005c1.104 0.941 2.355 2.007 3.657 3.146 1.31-1.141 2.563-2.209 3.669-3.151 3.157-2.691 5.884-5.014 7.717-7.226 1.897-2.289 2.742-4.324 2.742-6.6 0-2.157-0.725-4.132-2.042-5.56-1.297-1.407-3.081-2.182-5.023-2.182-1.422 0-2.728 0.452-3.881 1.344-1.028 0.795-1.743 1.8-2.163 2.503-0.216 0.362-0.596 0.577-1.016 0.577s-0.801-0.216-1.016-0.577c-0.42-0.703-1.135-1.708-2.163-2.503-1.153-0.892-2.459-1.344-3.881-1.344z"></path>
</symbol>
<symbol id="icon-logo" viewBox="0 0 147 32">
<path fill="none" stroke="#121d2e" style="stroke: var(--color1, #121d2e)" stroke-linejoin="miter" stroke-linecap="butt" stroke-miterlimit="4" stroke-width="1.1429" d="M147.429 0h-147.429v32h147.429v-32z"></path>
<path fill="#121d2e" style="fill: var(--color1, #121d2e)" d="M69.612 25.486h5.265v-2.373h-2.234v-13.445h2.234v-2.37h-5.265v18.187zM80.551 21.714h3.147v-11.035h4.352v-2.565h-11.851v2.565h4.352v11.035zM99.28 16.527c0.022-1.001-0.222-1.991-0.709-2.866-0.457-0.804-1.135-1.46-1.953-1.889-0.874-0.439-1.838-0.666-2.816-0.66s-1.94 0.242-2.809 0.69c-0.831 0.441-1.523 1.103-2.001 1.913-0.49 0.839-0.742 1.796-0.729 2.768-0.016 0.977 0.24 1.939 0.738 2.778 0.502 0.825 1.23 1.489 2.098 1.913 0.974 0.474 2.046 0.709 3.128 0.686 0.799 0.055 1.6-0.069 2.346-0.361s1.418-0.746 1.967-1.329l-1.613-1.749c-0.336 0.333-0.736 0.594-1.175 0.768-0.464 0.169-0.954 0.251-1.448 0.242-0.703 0.025-1.397-0.172-1.982-0.563-0.522-0.362-0.884-0.912-1.010-1.535h7.907c0.039-0.505 0.058-0.777 0.058-0.816l0.001 0.010zM93.859 13.399c0.625-0.019 1.234 0.192 1.714 0.592 0.471 0.404 0.776 0.968 0.855 1.584h-5.153c0.074-0.62 0.38-1.189 0.855-1.593 0.487-0.396 1.101-0.603 1.729-0.583zM105.402 21.87c0.902 0.019 1.8-0.122 2.651-0.418 0.666-0.223 1.255-0.631 1.699-1.175 0.385-0.494 0.59-1.103 0.583-1.729 0.039-0.651-0.177-1.292-0.602-1.787-0.385-0.417-0.875-0.722-1.418-0.883-0.69-0.194-1.39-0.347-2.098-0.457-0.567-0.071-1.126-0.195-1.671-0.369-0.152-0.038-0.287-0.127-0.382-0.251s-0.146-0.278-0.143-0.434c0.007-0.15 0.056-0.296 0.142-0.42s0.205-0.221 0.344-0.28c0.456-0.209 0.956-0.302 1.457-0.272 1.055-0.009 2.093 0.259 3.011 0.777l1.010-2.157c-0.567-0.317-1.18-0.543-1.817-0.67-0.724-0.161-1.464-0.243-2.206-0.243-0.883-0.019-1.763 0.126-2.593 0.427-0.659 0.232-1.238 0.646-1.671 1.194-0.38 0.507-0.581 1.125-0.571 1.759-0.044 0.666 0.175 1.323 0.611 1.829 0.395 0.42 0.894 0.728 1.447 0.894 0.695 0.198 1.402 0.347 2.118 0.447 0.548 0.053 1.088 0.164 1.613 0.33 0.146 0.033 0.277 0.114 0.372 0.23s0.149 0.261 0.152 0.411c0 0.635-0.641 0.952-1.923 0.952-0.657-0.003-1.311-0.098-1.943-0.281-0.596-0.16-1.165-0.405-1.69-0.729l-1.010 2.171c0.612 0.377 1.282 0.652 1.983 0.815 0.831 0.214 1.687 0.322 2.545 0.321v-0.001zM118.711 19.072c-0.352 0.264-0.784 0.401-1.224 0.389-0.177 0.011-0.354-0.015-0.52-0.077s-0.317-0.158-0.442-0.282c-0.243-0.282-0.366-0.649-0.343-1.021v-4.253h2.603v-2.331h-2.602v-2.547h-3.031v2.545h-1.609v2.334h1.613v4.294c-0.036 0.511 0.035 1.023 0.21 1.504s0.45 0.92 0.806 1.288c0.802 0.678 1.837 1.019 2.886 0.952 0.462 0.002 0.922-0.054 1.371-0.166 0.394-0.092 0.768-0.26 1.098-0.495l-0.816-2.134zM120.944 23.463h9.714v-1.749h-9.714v1.749zM137.417 25.486v-18.187h-5.246v2.37h2.215v13.445h-2.215v2.373h5.246z"></path>
<path fill="#121d2e" style="fill: var(--color1, #121d2e)" d="M0 0h52.893l8.816 16.64-8.816 15.36h-52.893v-32z"></path>
<path fill="#fff" style="fill: var(--color2, #fff)" d="M18.356 8.114h-5.887v13.6h3.147v-3.75h2.743c1.076 0.026 2.145-0.176 3.138-0.592 0.837-0.356 1.549-0.953 2.045-1.715 0.49-0.782 0.74-1.69 0.719-2.613 0.023-0.924-0.227-1.835-0.719-2.618-0.501-0.759-1.214-1.355-2.049-1.714-0.991-0.42-2.061-0.624-3.137-0.598zM18.182 15.4h-2.565v-4.721h2.565c0.77-0.054 1.534 0.162 2.161 0.613 0.25 0.217 0.446 0.488 0.574 0.793s0.184 0.635 0.164 0.965c0.019 0.327-0.038 0.654-0.166 0.956s-0.324 0.57-0.572 0.783c-0.626 0.449-1.388 0.665-2.157 0.611h-0.005zM29.761 12.641v-1.379h-2.895v10.453h3.031v-4.935c-0.030-0.395 0.019-0.792 0.146-1.168s0.328-0.722 0.592-1.017c0.274-0.252 0.596-0.446 0.946-0.572s0.722-0.179 1.094-0.158c0.117 0 0.343 0.013 0.68 0.039v-2.798c-0.728-0.014-1.451 0.118-2.127 0.389-0.586 0.236-1.094 0.632-1.466 1.143l-0.001 0.003zM40.618 21.87c1.026 0.019 2.040-0.217 2.953-0.686 0.844-0.437 1.55-1.099 2.040-1.913 0.499-0.84 0.754-1.802 0.738-2.778 0.017-0.976-0.237-1.938-0.735-2.778-0.49-0.814-1.196-1.476-2.040-1.913-0.92-0.454-1.932-0.69-2.958-0.69s-2.038 0.236-2.958 0.69c-0.848 0.435-1.558 1.097-2.050 1.913-0.499 0.84-0.754 1.802-0.738 2.778-0.016 0.977 0.24 1.939 0.738 2.778 0.492 0.816 1.202 1.478 2.050 1.913 0.916 0.468 1.934 0.704 2.962 0.686h-0.003zM40.618 19.383c-0.358 0.011-0.714-0.054-1.045-0.189s-0.63-0.339-0.878-0.598c-0.259-0.284-0.46-0.616-0.59-0.978s-0.187-0.746-0.168-1.13c-0.019-0.384 0.038-0.768 0.168-1.13s0.33-0.694 0.59-0.978c0.248-0.258 0.547-0.462 0.878-0.598s0.687-0.2 1.045-0.189c0.356-0.012 0.711 0.052 1.041 0.188s0.627 0.339 0.873 0.598c0.518 0.577 0.786 1.335 0.747 2.109 0.039 0.774-0.23 1.532-0.747 2.109-0.245 0.259-0.543 0.463-0.873 0.599s-0.685 0.2-1.042 0.188v-0.002z"></path>
</symbol>
<symbol id="icon-heart" viewBox="0 0 32 32">
<path fill="#ff6b09" style="fill: var(--color1, #ff6b09)" d="M16 30.72l-2.24-2.24c-8.32-7.36-13.76-12.32-13.76-18.4 0-4.96 3.84-8.8 8.8-8.8 2.72 0 5.44 1.28 7.2 3.36 1.76-2.080 4.48-3.36 7.2-3.36 4.96 0 8.8 3.84 8.8 8.8 0 6.080-5.44 11.040-13.76 18.4l-2.24 2.24z"></path>
</symbol>
<symbol id="icon-copyright" viewBox="0 0 32 32">
<path fill="#fff" style="fill: var(--color2, #fff)" opacity="0.4" d="M13.44 14.48c0.067-0.44 0.213-0.827 0.4-1.16s0.453-0.613 0.787-0.827c0.32-0.2 0.72-0.293 1.213-0.307 0.307 0.013 0.587 0.067 0.84 0.173 0.267 0.12 0.507 0.28 0.693 0.48s0.333 0.44 0.453 0.707c0.12 0.267 0.173 0.56 0.187 0.853h2.387c-0.027-0.627-0.147-1.2-0.373-1.72s-0.533-0.973-0.933-1.347c-0.4-0.373-0.88-0.667-1.44-0.88s-1.173-0.307-1.853-0.307c-0.867 0-1.627 0.147-2.267 0.453s-1.173 0.707-1.6 1.227c-0.427 0.52-0.747 1.12-0.947 1.813s-0.32 1.413-0.32 2.187v0.36c0 0.773 0.107 1.493 0.307 2.187s0.52 1.293 0.947 1.8c0.427 0.507 0.96 0.92 1.6 1.213s1.4 0.453 2.267 0.453c0.627 0 1.213-0.107 1.76-0.307s1.027-0.48 1.44-0.84c0.413-0.36 0.747-0.773 0.987-1.253s0.387-0.987 0.4-1.533h-2.387c-0.013 0.28-0.080 0.533-0.2 0.773s-0.28 0.44-0.48 0.613c-0.2 0.173-0.427 0.307-0.693 0.4-0.253 0.093-0.52 0.12-0.8 0.133-0.48-0.013-0.88-0.107-1.187-0.307-0.333-0.213-0.6-0.493-0.787-0.827s-0.333-0.733-0.4-1.173c-0.067-0.44-0.107-0.893-0.107-1.333v-0.36c0-0.467 0.040-0.907 0.107-1.347zM16 2.667c-7.36 0-13.333 5.973-13.333 13.333s5.973 13.333 13.333 13.333c7.36 0 13.333-5.973 13.333-13.333s-5.973-13.333-13.333-13.333zM16 26.667c-5.88 0-10.667-4.787-10.667-10.667s4.787-10.667 10.667-10.667c5.88 0 10.667 4.787 10.667 10.667s-4.787 10.667-10.667 10.667z"></path>
</symbol>
</defs>
</svg>
