<svg aria-hidden="true" style="position:absolute;width:0;height:0;overflow:hidden" xmlns="http://www.w3.org/2000/svg"><defs><symbol id="icon-arrow" viewBox="0 0 32 32"><path d="m31.805 15.529-10-10a.668.668 0 0 0-.943.943l8.862 8.862H.667a.667.667 0 1 0 0 1.334h29.057l-8.862 8.862a.668.668 0 0 0 .942.943l10-10a.668.668 0 0 0 0-.943z"/></symbol><symbol id="icon-arrow-left" viewBox="0 0 32 32"><path d="m.195 16.471 10 10a.666.666 0 1 0 .943-.943l-8.862-8.862h29.057a.666.666 0 1 0 0-1.334H2.276l8.862-8.862a.668.668 0 0 0-.942-.943l-10 10a.668.668 0 0 0 0 .943z"/></symbol><symbol id="icon-close" viewBox="0 0 32 32"><path d="M31.556 3.578 28.423.445 16.001 12.867 3.579.445.446 3.578 12.868 16 .446 28.422l3.133 3.133 12.422-12.422 12.422 12.422 3.133-3.133L19.134 16 31.556 3.578z"/></symbol><symbol id="icon-like-1" viewBox="0 0 32 32"><path d="m16 30.72-2.24-2.24C5.44 21.12 0 16.16 0 10.08c0-4.96 3.84-8.8 8.8-8.8 2.72 0 5.44 1.28 7.2 3.36 1.76-2.08 4.48-3.36 7.2-3.36 4.96 0 8.8 3.84 8.8 8.8 0 6.08-5.44 11.04-13.76 18.4L16 30.72z"/></symbol><symbol id="icon-sign-out" viewBox="0 0 32 32"><path d="m25.293 9.293-1.414 1.414L28.172 15H14v2h14.172l-4.293 4.293 1.414 1.414L32 16l-6.707-6.707z"/><path d="M22 30H2V2h20v2h2V1a1 1 0 0 0-1-1H1a1 1 0 0 0-1 1v30a1 1 0 0 0 1 1h22a1 1 0 0 0 1-1v-3h-2v2z"/></symbol><symbol id="icon-menu" viewBox="0 0 32 32"><path d="M1 26h30v-3.333H1V26zm0-8.333h30v-3.333H1v3.333zM1 6v3.333h30V6H1z"/></symbol><symbol id="icon-like-2" viewBox="0 0 32 32"><path d="M16 30.22c-.456 0-.895-.165-1.237-.465a374.562 374.562 0 0 0-3.639-3.13l-.006-.005c-3.224-2.747-6.008-5.12-7.945-7.457-2.165-2.613-3.174-5.09-3.174-7.796 0-2.629.902-5.055 2.539-6.831C4.195 2.739 6.467 1.75 8.939 1.75c1.847 0 3.539.584 5.028 1.736A10.288 10.288 0 0 1 16 5.609c.6-.83 1.281-1.541 2.033-2.123 1.489-1.152 3.181-1.736 5.028-1.736 2.471 0 4.744.99 6.401 2.786C31.099 6.312 32 8.737 32 11.367c0 2.706-1.008 5.184-3.174 7.796-1.937 2.337-4.721 4.71-7.944 7.457-1.102.939-2.35 2.002-3.646 3.136a1.878 1.878 0 0 1-1.237.464zM8.939 3.624c-1.942 0-3.725.775-5.023 2.182-1.317 1.428-2.042 3.403-2.042 5.56 0 2.276.846 4.312 2.743 6.6 1.833 2.212 4.56 4.536 7.717 7.227l.006.005c1.104.941 2.355 2.007 3.657 3.146a430.966 430.966 0 0 1 3.669-3.151c3.157-2.691 5.884-5.014 7.717-7.226 1.897-2.289 2.742-4.324 2.742-6.6 0-2.157-.725-4.132-2.042-5.56-1.297-1.407-3.081-2.182-5.023-2.182-1.422 0-2.728.452-3.881 1.344-1.028.795-1.743 1.8-2.163 2.503-.216.362-.596.577-1.016.577s-.801-.216-1.016-.577c-.42-.703-1.135-1.708-2.163-2.503-1.153-.892-2.459-1.344-3.881-1.344z"/></symbol><symbol id="icon-logo" viewBox="0 0 147 32"><path fill="#fff" style="fill:var(--color1, #fff)" stroke-width="1.143" d="M147.429 0H0v32h147.429V0z"/><path fill="#121d2e" style="fill:var(--color1, #121d2e)" d="M69.612 25.486h5.265v-2.373h-2.234V9.668h2.234v-2.37h-5.265v18.187zm10.939-3.772h3.147V10.679h4.352V8.114H76.199v2.565h4.352v11.035zm18.729-5.187a5.64 5.64 0 0 0-.709-2.866 4.825 4.825 0 0 0-1.953-1.889 6.188 6.188 0 0 0-5.625.03 5.098 5.098 0 0 0-2.001 1.913 5.347 5.347 0 0 0-.729 2.768c-.016.977.24 1.939.738 2.778a5.051 5.051 0 0 0 2.098 1.913 6.816 6.816 0 0 0 3.128.686 5.416 5.416 0 0 0 4.313-1.69l-1.613-1.749a3.503 3.503 0 0 1-1.175.768 4.014 4.014 0 0 1-1.448.242 3.354 3.354 0 0 1-1.982-.563 2.462 2.462 0 0 1-1.01-1.535h7.907c.039-.505.058-.777.058-.816l.001.01zm-5.421-3.128a2.555 2.555 0 0 1 1.714.592c.471.404.776.968.855 1.584h-5.153c.074-.62.38-1.189.855-1.593a2.609 2.609 0 0 1 1.729-.583zm11.543 8.471c.902.019 1.8-.122 2.651-.418a3.718 3.718 0 0 0 1.699-1.175 2.76 2.76 0 0 0 .583-1.729 2.513 2.513 0 0 0-.602-1.787 3.148 3.148 0 0 0-1.418-.883c-.69-.194-1.39-.347-2.098-.457a9.288 9.288 0 0 1-1.671-.369.694.694 0 0 1-.525-.685.803.803 0 0 1 .486-.7 3.057 3.057 0 0 1 1.457-.272 6.022 6.022 0 0 1 3.011.777l1.01-2.157a6.212 6.212 0 0 0-1.817-.67 10.165 10.165 0 0 0-2.206-.243 7.158 7.158 0 0 0-2.593.427 3.692 3.692 0 0 0-1.671 1.194 2.856 2.856 0 0 0-.571 1.759 2.545 2.545 0 0 0 .611 1.829c.395.42.894.728 1.447.894.695.198 1.402.347 2.118.447a7.857 7.857 0 0 1 1.613.33.673.673 0 0 1 .524.641c0 .635-.641.952-1.923.952a7.104 7.104 0 0 1-1.943-.281 6.352 6.352 0 0 1-1.69-.729l-1.01 2.171a6.654 6.654 0 0 0 1.983.815c.831.214 1.687.322 2.545.321v-.001zm13.309-2.798a1.952 1.952 0 0 1-1.224.389 1.262 1.262 0 0 1-.962-.359 1.43 1.43 0 0 1-.343-1.021v-4.253h2.603v-2.331h-2.602V8.95h-3.031v2.545h-1.609v2.334h1.613v4.294a3.647 3.647 0 0 0 1.016 2.792 4.07 4.07 0 0 0 2.886.952c.462.002.922-.054 1.371-.166.394-.092.768-.26 1.098-.495l-.816-2.134zm2.233 4.391h9.714v-1.749h-9.714v1.749zm16.473 2.023V7.299h-5.246v2.37h2.215v13.445h-2.215v2.373h5.246zM0 0h52.893l8.816 16.64L52.893 32H0V0z"/><path d="M18.356 8.114h-5.887v13.6h3.147v-3.75h2.743a7.643 7.643 0 0 0 3.138-.592 4.578 4.578 0 0 0 2.045-1.715c.49-.782.74-1.69.719-2.613a4.702 4.702 0 0 0-.719-2.618 4.662 4.662 0 0 0-2.049-1.714 7.572 7.572 0 0 0-3.137-.598zm-.174 7.286h-2.565v-4.721h2.565a3.303 3.303 0 0 1 2.161.613 2.152 2.152 0 0 1 .738 1.758 2.133 2.133 0 0 1-.738 1.739 3.302 3.302 0 0 1-2.157.611h-.005zm11.579-2.759v-1.379h-2.895v10.453h3.031V16.78a2.95 2.95 0 0 1 .738-2.185 2.768 2.768 0 0 1 2.04-.73c.117 0 .343.013.68.039v-2.798a5.434 5.434 0 0 0-2.127.389 3.371 3.371 0 0 0-1.466 1.143l-.001.003zm10.857 9.229a6.21 6.21 0 0 0 2.953-.686 5.138 5.138 0 0 0 2.04-1.913 5.27 5.27 0 0 0 .738-2.778 5.267 5.267 0 0 0-.735-2.778 5.138 5.138 0 0 0-2.04-1.913 6.684 6.684 0 0 0-5.916 0 5.124 5.124 0 0 0-2.05 1.913 5.27 5.27 0 0 0-.738 2.778c-.016.977.24 1.939.738 2.778a5.124 5.124 0 0 0 2.05 1.913 6.272 6.272 0 0 0 2.962.686h-.003zm0-2.487a2.56 2.56 0 0 1-1.923-.787 2.913 2.913 0 0 1-.758-2.108 2.917 2.917 0 0 1 .758-2.108 2.543 2.543 0 0 1 1.923-.787 2.534 2.534 0 0 1 1.914.786c.518.577.786 1.335.747 2.109a2.94 2.94 0 0 1-.747 2.109 2.527 2.527 0 0 1-1.915.787v-.002z"/><path fill="none" stroke-width="1.143" d="M147.429 0H0v32h147.429V0z"/></symbol><symbol id="icon-heart" viewBox="0 0 32 32"><path fill="#ff6b09" style="fill:var(--color1, #ff6b09)" d="m16 30.72-2.24-2.24C5.44 21.12 0 16.16 0 10.08c0-4.96 3.84-8.8 8.8-8.8 2.72 0 5.44 1.28 7.2 3.36 1.76-2.08 4.48-3.36 7.2-3.36 4.96 0 8.8 3.84 8.8 8.8 0 6.08-5.44 11.04-13.76 18.4L16 30.72z"/></symbol><symbol id="icon-copyright" viewBox="0 0 32 32"><path fill="#fff" style="fill:var(--color2, #fff)" opacity=".4" d="M13.44 14.48c.067-.44.213-.827.4-1.16s.453-.613.787-.827c.32-.2.72-.293 1.213-.307.307.013.587.067.84.173.267.12.507.28.693.48s.333.44.453.707c.12.267.173.56.187.853H20.4c-.027-.627-.147-1.2-.373-1.72a4 4 0 0 0-.933-1.347c-.4-.373-.88-.667-1.44-.88s-1.173-.307-1.853-.307c-.867 0-1.627.147-2.267.453s-1.173.707-1.6 1.227c-.427.52-.747 1.12-.947 1.813s-.32 1.413-.32 2.187v.36c0 .773.107 1.493.307 2.187s.52 1.293.947 1.8c.427.507.96.92 1.6 1.213s1.4.453 2.267.453c.627 0 1.213-.107 1.76-.307s1.027-.48 1.44-.84c.413-.36.747-.773.987-1.253s.387-.987.4-1.533h-2.387c-.013.28-.08.533-.2.773s-.28.44-.48.613c-.2.173-.427.307-.693.4-.253.093-.52.12-.8.133-.48-.013-.88-.107-1.187-.307-.333-.213-.6-.493-.787-.827s-.333-.733-.4-1.173a8.938 8.938 0 0 1-.107-1.333v-.36c0-.467.04-.907.107-1.347zM16 2.667C8.64 2.667 2.667 8.64 2.667 16S8.64 29.333 16 29.333 29.333 23.36 29.333 16 23.36 2.667 16 2.667zm0 24C10.12 26.667 5.333 21.88 5.333 16S10.12 5.333 16 5.333 26.667 10.12 26.667 16 21.88 26.667 16 26.667z"/></symbol><symbol id="icon-radio" viewBox="0 0 32 32"><path stroke-width="1.778" d="M31.111 16c0 8.346-6.765 15.111-15.111 15.111S.889 24.346.889 16 7.654.889 16 .889 31.111 7.654 31.111 16z"/></symbol><symbol id="icon-radio-checked" viewBox="0 0 40 40"><circle cx="50%" cy="50%" r="18" stroke="#000" fill="none"/></symbol></defs></svg>